<?xml version="1.0" encoding="UTF-8"?>
<svg xmlns="http://www.w3.org/2000/svg" xmlns:xlink="http://www.w3.org/1999/xlink" viewBox="0 0 48 48" width="48px" height="48px">
<g id="surface52864548">
<rect x="0" y="0" width="48" height="48" style="fill:rgb(86.666667%,86.666667%,86.666667%);fill-opacity:1;stroke:none;"/>
<path style=" stroke:none;fill-rule:nonzero;fill:rgb(56.470591%,64.313728%,68.235296%);fill-opacity:1;" d="M 44 24 C 44 35.042969 35.042969 44 24 44 C 12.957031 44 4 35.042969 4 24 C 4 12.957031 12.957031 4 24 4 C 35.042969 4 44 12.957031 44 24 Z M 44 24 "/>
<path style=" stroke:none;fill-rule:nonzero;fill:rgb(81.176472%,84.705883%,86.274511%);fill-opacity:1;" d="M 41 24 C 41 33.390625 33.390625 41 24 41 C 14.609375 41 7 33.390625 7 24 C 7 14.609375 14.609375 7 24 7 C 33.390625 7 41 14.609375 41 24 Z M 41 24 "/>
<path style=" stroke:none;fill-rule:nonzero;fill:rgb(21.568628%,27.843139%,30.980393%);fill-opacity:1;" d="M 35.03125 12.96875 C 28.730469 13.019531 22.449219 17.683594 19.300781 20.835938 C 16.132812 20.835938 11.382812 22.417969 9.800781 25.585938 C 11.355469 25.585938 15.015625 25.585938 17.71875 25.585938 L 16.132812 28.75 L 19.25 31.917969 L 22.417969 30.335938 C 22.417969 33.035156 22.417969 36.695312 22.417969 38.253906 C 25.585938 36.667969 27.167969 31.917969 27.167969 28.753906 C 30.316406 25.601562 34.980469 19.320312 35.03125 13.023438 L 35.085938 12.96875 C 35.066406 12.96875 35.050781 12.96875 35.03125 12.96875 Z M 28.75 20.832031 C 27.875 20.832031 27.167969 20.125 27.167969 19.25 C 27.167969 18.375 27.875 17.667969 28.75 17.667969 C 29.625 17.667969 30.332031 18.375 30.332031 19.25 C 30.332031 20.125 29.625 20.832031 28.75 20.832031 Z M 28.75 20.832031 "/>
<path style=" stroke:none;fill-rule:nonzero;fill:rgb(21.568628%,27.843139%,30.980393%);fill-opacity:1;" d="M 18.3125 32.570312 L 18.011719 32.265625 C 18.011719 32.265625 16.878906 33.195312 14.828125 33.195312 L 14.808594 33.191406 L 14.808594 33.171875 C 14.808594 31.121094 15.738281 29.988281 15.738281 29.988281 L 15.433594 29.683594 C 15.433594 29.683594 12.925781 30.660156 12.921875 35.074219 L 12.910156 35.082031 C 12.914062 35.082031 12.921875 35.082031 12.921875 35.082031 C 17.339844 35.078125 18.3125 32.570312 18.3125 32.570312 Z M 18.3125 32.570312 "/>
</g>
</svg>
